<?xml version="1.0" standalone="no"?>
<!DOCTYPE svg PUBLIC "-//W3C//DTD SVG 20010904//EN"
 "http://www.w3.org/TR/2001/REC-SVG-20010904/DTD/svg10.dtd">
<svg version="1.0" xmlns="http://www.w3.org/2000/svg"
 width="900.000000pt" height="507.000000pt" viewBox="0 0 900.000000 507.000000"
 preserveAspectRatio="xMidYMid meet">
<metadata>
Created by potrace 1.10, written by Peter Selinger 2001-2011
</metadata>
<g transform="translate(0.000000,507.000000) scale(0.100000,-0.100000)"
fill="#020000" stroke="none">
<path d="M2950 5056 c0 -8 21 -25 48 -37 26 -13 53 -29 60 -36 7 -7 18 -13 23
-13 5 0 9 -6 9 -14 0 -20 -44 -46 -78 -46 -15 0 -37 -7 -48 -15 -10 -8 -31
-15 -45 -15 -15 0 -32 -7 -39 -15 -7 -8 -23 -15 -35 -15 -12 0 -28 -7 -35 -15
-7 -8 -23 -15 -35 -15 -12 0 -28 -7 -35 -15 -7 -8 -22 -15 -34 -15 -12 0 -27
-5 -34 -12 -12 -12 -69 -35 -109 -45 -13 -3 -23 -11 -23 -17 0 -18 65 -46 108
-46 20 -1 48 -7 62 -15 14 -8 35 -14 47 -15 12 0 34 -6 50 -14 34 -17 88 -36
128 -45 50 -11 44 -46 -21 -116 -30 -33 -66 -72 -80 -87 -13 -14 -24 -30 -24
-35 0 -5 -13 -23 -30 -41 -16 -18 -30 -35 -30 -37 0 -2 -13 -19 -30 -37 -16
-18 -30 -38 -30 -46 0 -7 -7 -15 -15 -18 -8 -4 -15 -12 -15 -19 0 -7 -7 -15
-15 -19 -8 -3 -15 -11 -15 -18 0 -7 -20 -36 -45 -63 -25 -28 -45 -53 -45 -57
0 -4 9 -10 20 -13 14 -4 33 4 64 29 23 20 48 36 55 36 6 0 11 4 11 8 0 5 10
14 23 21 12 6 36 20 52 31 17 11 37 22 45 26 8 3 22 10 30 15 8 5 25 13 37 18
11 6 24 15 28 20 3 6 15 11 25 11 10 0 23 6 27 13 4 6 31 24 59 39 39 21 53
25 62 16 17 -17 15 -31 -8 -51 -11 -9 -20 -25 -20 -36 0 -10 -7 -24 -15 -31
-8 -7 -15 -27 -15 -44 0 -17 -7 -40 -15 -50 -8 -11 -15 -36 -15 -56 0 -20 -7
-45 -15 -56 -8 -10 -15 -39 -15 -64 0 -25 -7 -56 -15 -70 -8 -14 -14 -48 -15
-77 0 -28 -7 -79 -16 -113 -8 -34 -13 -68 -10 -76 8 -20 46 -17 52 4 3 9 12
30 20 45 7 16 14 37 14 47 0 9 7 23 15 30 8 7 15 20 15 30 0 10 7 23 15 30 8
7 15 21 15 31 0 10 4 20 10 24 12 8 67 123 75 158 3 16 11 27 18 24 18 -6 24
-54 18 -146 l-6 -83 -35 -12 c-27 -9 -34 -16 -32 -31 2 -11 6 -37 9 -57 5 -35
8 -38 38 -38 20 0 39 -8 51 -21 14 -16 26 -19 50 -15 21 5 35 2 44 -9 9 -10
31 -15 72 -15 33 0 68 -5 78 -10 21 -11 196 -39 292 -47 32 -3 62 -11 69 -19
6 -8 20 -14 29 -14 10 0 31 -6 47 -14 31 -16 47 -22 148 -60 39 -14 78 -26 87
-26 9 0 18 -7 22 -15 4 -10 20 -15 51 -15 28 0 44 -4 40 -10 -3 -5 -17 -10
-31 -10 -29 0 -30 -4 -6 -28 15 -16 20 -16 45 -4 41 21 90 68 83 81 -4 6 -21
11 -37 11 -17 0 -39 4 -49 10 -10 5 -59 20 -108 32 -49 13 -91 28 -93 33 -7
18 113 22 234 9 129 -15 384 -17 462 -3 75 12 174 19 190 12 25 -9 17 -30 -12
-36 -30 -6 -115 -33 -148 -48 -11 -4 -36 -10 -55 -11 -33 -3 -35 -5 -32 -37 3
-42 38 -81 75 -81 37 0 35 25 -3 45 -39 20 -32 31 27 39 27 4 57 13 67 21 11
8 30 15 42 15 13 0 29 6 36 14 8 7 34 17 59 21 59 10 66 15 38 32 -22 13 -20
14 29 8 50 -5 88 2 152 28 14 6 75 14 135 18 61 4 144 14 185 22 41 8 89 12
106 10 20 -3 41 1 56 11 14 9 32 14 41 10 9 -3 29 3 46 15 16 12 40 21 54 21
22 0 28 8 42 50 19 58 16 77 -17 82 -21 3 -24 10 -32 75 -5 39 -6 79 -3 87 9
23 35 19 42 -6 4 -13 31 -54 59 -93 29 -38 69 -96 91 -128 35 -53 39 -57 54
-42 14 14 14 19 -3 63 -10 26 -21 66 -23 89 -3 23 -11 47 -19 54 -8 6 -14 30
-14 54 0 26 -6 48 -15 55 -8 7 -15 29 -15 50 0 21 -7 43 -15 50 -8 7 -15 27
-15 46 0 18 -7 39 -15 48 -8 8 -15 25 -15 38 0 13 -9 37 -20 53 -11 17 -20 38
-20 48 0 30 -25 19 -42 -19 -16 -34 -15 -39 12 -117 15 -45 37 -104 49 -130
20 -46 28 -97 15 -97 -3 0 -21 12 -40 26 -19 15 -34 21 -34 15 0 -37 -74 29
-167 149 -35 45 -48 70 -44 83 6 16 12 13 50 -23 25 -22 46 -40 48 -40 5 0
-60 103 -73 117 -7 7 -27 38 -44 68 -17 30 -36 53 -41 50 -14 -9 -10 -68 6
-89 8 -11 15 -33 15 -50 0 -28 17 -109 41 -199 5 -21 14 -35 19 -32 14 8 45
-27 81 -89 28 -52 30 -58 18 -91 -11 -28 -11 -44 -1 -82 12 -43 11 -48 -9 -69
-13 -13 -30 -24 -39 -24 -15 0 -17 15 -17 118 0 70 -4 126 -11 137 -9 16 -11
-2 -12 -86 0 -105 -1 -107 -30 -139 -18 -19 -42 -34 -58 -35 -179 -14 -222
-16 -222 -8 0 5 7 18 15 29 8 10 15 25 15 33 0 11 -4 11 -18 -2 -10 -10 -30
-17 -45 -17 -14 0 -32 -7 -41 -15 -8 -8 -28 -15 -45 -15 -16 0 -60 -7 -98 -16
-47 -11 -108 -15 -198 -13 -71 1 -175 -4 -230 -11 -140 -17 -538 -4 -741 25
-56 8 -124 15 -151 15 -28 0 -58 6 -69 15 -10 8 -31 15 -45 15 -20 0 -29 9
-44 43 -17 37 -20 65 -19 240 l0 198 32 29 c18 16 32 36 32 45 0 32 61 44 301
56 236 12 624 15 754 4 130 -10 434 -15 439 -6 3 4 -11 19 -31 32 -41 27 -47
37 -34 58 7 11 13 10 35 -5 14 -11 26 -22 26 -26 0 -4 10 -22 23 -41 15 -24
35 -38 65 -47 24 -7 42 -18 42 -26 0 -8 7 -17 15 -20 8 -4 15 -14 15 -23 0
-10 3 -21 7 -25 15 -14 31 -141 32 -238 1 -54 5 -98 10 -98 5 0 9 34 9 75 -1
84 4 98 23 63 6 -12 15 -25 18 -28 9 -7 81 -157 81 -168 0 -5 6 -15 14 -22 8
-6 16 -23 18 -37 5 -40 23 -38 36 4 9 30 9 40 -3 53 -8 9 -15 26 -15 38 0 28
-122 268 -150 296 -5 5 -10 20 -10 33 0 13 -7 26 -15 29 -10 4 -13 14 -9 29 4
15 0 24 -10 28 -9 4 -16 13 -16 22 0 8 -9 15 -20 15 -11 0 -20 7 -20 15 0 8
-7 15 -15 15 -8 0 -15 4 -15 9 0 6 -16 27 -35 48 -19 21 -35 44 -35 51 0 6 -4
12 -10 12 -16 0 -43 69 -32 83 5 6 7 19 3 28 -9 23 -63 89 -73 89 -5 0 -7 -25
-5 -56 3 -44 9 -61 31 -85 28 -29 28 -30 10 -44 -11 -8 -28 -13 -39 -10 -134
35 -1137 32 -1203 -4 -18 -10 -26 -10 -38 0 -20 17 -17 32 12 64 21 22 24 32
16 45 -6 10 -7 22 -1 31 12 19 11 59 0 59 -5 0 -27 -21 -48 -47 -21 -27 -41
-49 -45 -51 -5 -2 -8 -13 -8 -24 0 -15 4 -18 23 -13 18 6 20 5 10 -6 -7 -7
-13 -20 -13 -28 0 -8 -7 -21 -15 -30 -8 -9 -33 -36 -55 -61 -33 -37 -42 -42
-49 -30 -11 16 -11 17 -59 -46 -18 -23 -32 -48 -32 -55 0 -8 -7 -22 -15 -32
-7 -11 -11 -25 -8 -33 3 -8 -2 -17 -11 -20 -11 -4 -15 -13 -10 -26 5 -17 -47
-140 -67 -158 -14 -13 -89 -178 -89 -197 0 -11 -6 -26 -14 -33 -8 -6 -16 -24
-18 -38 -2 -21 -8 -27 -27 -27 -24 0 -24 1 -22 80 1 44 7 100 12 125 23 104
26 137 19 175 -7 42 -10 39 -31 -30 -6 -22 -18 -52 -25 -67 l-14 -27 -24 22
c-21 18 -22 25 -13 51 18 54 96 148 118 143 6 -1 20 27 31 63 28 92 31 117 19
124 -14 9 -34 -13 -126 -135 -82 -109 -110 -138 -135 -139 -8 0 -30 -16 -47
-35 -18 -19 -35 -35 -38 -35 -12 0 -3 47 25 135 19 57 28 103 25 118 -8 30 11
141 25 145 6 2 10 10 10 17 0 8 14 30 30 48 52 59 35 74 -35 32 -22 -14 -47
-27 -55 -31 -30 -12 -179 -92 -197 -106 -7 -5 -20 -8 -29 -6 -13 2 1 22 53 78
72 77 103 125 103 158 0 24 24 72 42 84 10 7 9 11 -5 22 -17 13 -138 62 -202
82 -16 5 -31 16 -33 25 -3 19 69 59 173 96 82 29 95 39 95 65 0 10 8 21 18 25
26 9 52 34 52 50 0 8 -9 26 -20 40 -11 14 -20 39 -20 54 l0 29 -80 0 c-62 0
-80 -3 -80 -14z m611 -1198 c1 -7 2 -53 3 -103 1 -49 6 -98 10 -108 13 -29 -8
-41 -80 -45 -64 -4 -66 -4 -60 17 3 11 8 31 12 44 3 12 26 64 51 115 43 86 62
109 64 80z m-283 -174 c-2 -27 -8 -39 -18 -39 -19 0 -26 61 -9 81 18 22 31 2
27 -42z m1778 -175 c11 -18 -17 -29 -72 -29 -56 0 -69 7 -53 27 14 16 115 18
125 2z"/>
<path d="M5754 5044 c4 -15 10 -39 13 -55 3 -18 12 -29 26 -31 11 -2 21 -11
23 -21 3 -20 32 -46 51 -47 18 0 209 -64 263 -88 56 -25 53 -25 -190 -64 -36
-6 -69 -14 -73 -18 -5 -4 -1 -22 8 -39 10 -21 14 -43 9 -66 -7 -42 14 -84 106
-208 36 -48 74 -101 83 -117 17 -27 17 -30 2 -30 -9 0 -55 25 -100 55 -46 30
-87 55 -90 55 -8 0 -69 44 -73 53 -5 11 -32 8 -32 -4 0 -6 7 -17 15 -25 8 -9
15 -30 15 -48 0 -39 34 -79 59 -71 10 3 24 -1 31 -10 7 -8 19 -15 26 -15 8 0
14 -4 14 -9 0 -5 12 -14 28 -20 15 -6 41 -20 57 -31 17 -11 41 -25 55 -30 13
-6 27 -14 30 -18 7 -9 40 -30 68 -42 12 -5 22 -14 22 -20 0 -5 6 -10 13 -10 6
-1 28 -14 47 -30 61 -53 78 -34 35 41 -13 24 -29 54 -34 66 -5 11 -15 24 -20
28 -6 3 -11 14 -11 25 0 10 -7 20 -15 24 -8 3 -15 14 -15 25 0 11 -6 24 -12
28 -13 8 -33 36 -45 63 -3 8 -19 31 -35 51 -15 20 -28 42 -28 48 0 7 -7 14
-15 17 -8 4 -15 12 -15 19 0 7 -7 15 -15 19 -8 3 -15 12 -15 20 0 8 -22 36
-48 63 -40 41 -47 54 -41 71 7 18 16 22 57 22 27 0 71 7 98 15 27 8 74 15 104
15 30 0 89 7 130 16 45 9 92 13 118 9 48 -7 82 1 82 19 0 13 -66 46 -92 46 -9
0 -21 7 -28 15 -7 8 -25 15 -40 15 -15 0 -33 7 -40 15 -7 8 -23 15 -35 15 -12
0 -28 7 -35 15 -7 8 -25 15 -39 15 -15 0 -36 7 -47 15 -10 8 -31 15 -45 15
-15 0 -32 7 -39 15 -7 8 -29 15 -50 15 -21 0 -43 7 -50 15 -7 8 -29 15 -49 15
-45 0 -114 24 -119 40 -3 7 3 17 12 22 33 19 18 38 -30 38 -45 0 -46 -1 -40
-26z"/>
<path d="M3387 4367 c-37 -40 -87 -109 -87 -122 0 -3 8 -1 18 4 9 5 32 15 50
21 22 9 34 21 38 39 3 14 10 36 15 49 11 29 11 32 -1 32 -6 0 -21 -10 -33 -23z"/>
<path d="M4175 4160 c-3 -5 -21 -10 -39 -10 -39 0 -57 -18 -81 -82 -12 -33
-16 -66 -13 -107 4 -57 3 -60 -21 -67 -14 -4 -39 -8 -56 -8 -20 -1 -30 -6 -30
-16 0 -9 12 -16 30 -18 47 -6 58 -20 51 -69 -7 -51 3 -163 15 -163 17 0 31 75
26 136 -7 74 -11 71 108 76 l80 3 5 -55 c5 -51 7 -55 32 -58 26 -3 27 -2 30
55 3 56 4 58 32 61 40 5 51 -11 51 -71 0 -49 2 -52 25 -52 24 0 25 3 25 53 0
59 17 79 56 67 19 -6 21 -12 15 -60 -7 -60 5 -78 41 -64 20 7 21 13 16 62 -5
50 -4 55 16 62 11 3 31 3 42 0 20 -7 21 -12 15 -65 -6 -54 -5 -58 16 -63 38
-10 50 10 42 70 -5 41 -3 53 7 53 8 0 78 1 157 3 138 3 142 2 142 -18 -1 -20
-47 -79 -133 -168 -26 -28 -45 -52 -43 -55 10 -9 108 62 140 102 41 50 56 79
56 104 0 16 12 23 58 34 46 11 58 18 60 36 3 16 -2 22 -17 22 -31 0 -33 16 -7
55 27 39 40 99 34 154 -4 43 -28 55 -28 14 0 -35 -37 -156 -60 -198 -14 -25
-23 -30 -53 -29 -21 0 -100 1 -178 2 l-140 2 3 58 3 57 -30 0 -30 0 3 -57 3
-58 -41 0 -42 0 4 58 3 57 -30 0 -30 0 3 -56 c3 -54 2 -57 -23 -61 -42 -8 -55
10 -45 62 10 54 7 60 -32 60 l-30 0 4 -57 c3 -54 2 -58 -23 -67 -47 -16 -59
-3 -59 64 0 61 0 61 -27 58 -26 -3 -28 -6 -33 -63 -4 -49 -8 -60 -22 -59 -10
0 -46 1 -80 2 -75 3 -94 11 -80 38 5 11 26 55 47 99 40 86 59 115 90 133 20
11 19 11 -2 12 -12 0 -25 -4 -28 -10z"/>
<path d="M3696 4130 c-17 -18 -17 -20 -2 -26 19 -7 46 12 46 32 0 20 -22 16
-44 -6z"/>
<path d="M3799 4114 c-15 -38 -4 -303 15 -364 33 -104 74 -148 62 -67 -3 23
-13 130 -22 237 -10 138 -19 199 -29 209 -12 13 -16 10 -26 -15z"/>
<path d="M3660 3896 c0 -7 7 -19 15 -26 19 -16 41 1 32 24 -8 20 -47 21 -47 2z"/>
<path d="M5280 3885 c0 -8 7 -15 15 -15 8 0 15 7 15 15 0 8 -7 15 -15 15 -8 0
-15 -7 -15 -15z"/>
<path d="M3712 3688 c-16 -16 -15 -28 3 -28 8 0 15 9 15 20 0 23 -2 24 -18 8z"/>
<path d="M3084 3565 c-7 -17 4 -37 17 -30 12 8 12 45 -1 45 -6 0 -13 -7 -16
-15z"/>
<path d="M5858 3543 c14 -6 17 -63 2 -63 -6 0 -19 5 -29 12 -30 18 -45 -2 -65
-89 -10 -43 -24 -93 -32 -111 -8 -18 -14 -41 -14 -52 0 -28 -11 -50 -25 -50
-20 0 -26 78 -9 124 8 23 17 67 21 99 l6 57 -34 -4 c-53 -5 -69 -42 -75 -173
-3 -59 -8 -115 -11 -123 -4 -8 -8 -26 -9 -40 -2 -14 -7 -63 -13 -110 -5 -47
-14 -103 -20 -125 -6 -22 -11 -62 -11 -90 -1 -27 -7 -68 -15 -90 -8 -22 -15
-53 -15 -70 0 -16 -7 -39 -15 -49 -8 -11 -15 -28 -15 -37 0 -10 -8 -32 -17
-51 -9 -18 -22 -45 -30 -60 -7 -14 -13 -35 -13 -46 0 -11 -7 -25 -15 -32 -8
-7 -15 -20 -15 -30 0 -10 -7 -23 -15 -30 -8 -7 -15 -16 -15 -21 0 -5 -12 -28
-27 -52 -51 -79 -55 -89 -42 -113 9 -17 9 -34 0 -72 -7 -27 -13 -89 -13 -138
-1 -116 -5 -124 -72 -124 -29 0 -77 -4 -105 -10 -29 -5 -82 -12 -119 -15 -37
-3 -94 -10 -127 -16 -33 -6 -199 -16 -370 -23 -248 -9 -319 -9 -353 1 -27 8
-51 9 -60 4 -22 -11 -394 -2 -406 10 -6 5 -31 9 -57 9 -43 0 -49 3 -63 32 -9
17 -16 38 -16 47 0 9 -7 29 -15 45 -8 15 -15 38 -15 50 0 11 -7 34 -15 50 -8
15 -15 39 -15 53 0 13 -4 43 -9 66 -6 23 -13 59 -16 80 -9 55 -28 45 -49 -25
-10 -35 -22 -73 -27 -86 -12 -31 -11 -62 1 -62 6 0 13 7 16 15 4 8 10 15 16
15 11 0 58 -103 58 -128 0 -10 6 -26 14 -37 7 -11 16 -32 20 -47 3 -16 11 -28
16 -28 6 0 10 -12 10 -27 1 -31 37 -59 105 -82 22 -7 56 -25 75 -41 l35 -29 2
-223 c1 -123 5 -270 9 -328 4 -58 8 -121 9 -140 7 -119 18 -206 26 -215 7 -7
9 41 8 143 -3 125 -6 155 -19 162 -13 7 -13 14 -3 41 7 19 9 37 4 43 -8 10 -7
468 1 539 4 38 31 51 105 52 66 0 73 -5 73 -49 0 -12 9 -39 19 -60 18 -34 20
-60 20 -296 0 -252 5 -300 32 -300 6 0 8 12 5 28 -5 24 -19 345 -17 382 0 8 0
56 0 106 0 74 3 93 18 106 15 13 55 15 258 16 132 1 292 6 355 12 63 6 153 13
200 16 47 3 107 12 134 20 27 7 64 14 82 14 18 0 35 4 38 9 3 5 20 11 38 14
77 13 125 25 153 37 76 32 92 38 120 47 24 6 33 18 46 53 9 25 21 58 27 73 7
16 12 36 12 46 0 10 7 36 16 56 l15 38 20 -32 c10 -17 19 -39 19 -49 0 -9 4
-24 10 -32 13 -22 24 11 16 53 -3 17 -10 62 -16 100 -5 37 -14 76 -20 87 -5
10 -10 35 -10 55 0 41 -27 95 -47 95 -17 0 -16 12 1 47 44 89 57 127 51 154
-6 25 -4 28 27 31 24 2 38 12 55 36 l22 34 14 -35 c8 -18 18 -43 21 -55 12
-36 24 -25 32 26 9 61 23 89 24 45 0 -18 10 -51 22 -74 18 -36 22 -63 26 -195
3 -85 9 -154 14 -154 12 0 16 16 22 85 3 33 10 76 15 96 l11 35 67 -1 c38 -1
81 -7 96 -13 16 -7 38 -12 50 -12 12 0 39 -9 60 -20 20 -11 45 -20 56 -20 31
0 138 -77 145 -105 4 -14 11 -25 17 -25 6 0 8 -16 5 -42 -4 -24 -8 -158 -11
-298 -2 -140 -9 -286 -15 -325 -5 -38 -14 -115 -20 -170 -5 -55 -19 -170 -32
-255 -12 -85 -22 -190 -22 -232 -1 -68 2 -79 24 -103 21 -22 22 -29 12 -45
-18 -29 -15 -35 23 -53 42 -20 45 -44 10 -77 -14 -13 -25 -28 -25 -34 0 -6 7
-3 14 7 7 9 18 17 25 17 6 0 11 4 11 9 0 14 59 41 87 41 14 0 44 -13 68 -30
24 -16 48 -30 53 -30 22 0 357 -172 494 -253 21 -12 61 -35 89 -50 87 -48 308
-198 359 -244 l49 -44 103 3 103 3 -40 24 c-22 14 -83 57 -135 96 -95 71 -277
195 -286 195 -3 0 -21 12 -39 26 -19 14 -49 34 -67 43 -74 39 -103 56 -108 63
-3 4 -17 12 -30 18 -14 6 -52 26 -85 45 -33 18 -107 57 -165 85 -58 29 -112
56 -120 61 -8 5 -22 12 -30 15 -26 10 -84 36 -113 50 -16 8 -36 14 -45 14 -9
0 -26 7 -36 15 -11 8 -32 15 -47 15 -15 0 -37 8 -49 18 -18 15 -20 21 -11 45
6 16 11 41 11 57 0 16 7 55 15 87 8 31 15 82 15 113 0 30 5 71 11 90 6 19 14
89 19 155 5 66 13 152 19 190 5 39 13 149 16 245 4 96 10 245 14 330 6 135 4
159 -10 188 -19 36 -71 88 -104 103 -11 5 -27 13 -35 17 -48 27 -84 42 -99 42
-9 0 -21 4 -27 9 -11 11 -111 39 -174 50 -25 4 -55 13 -67 19 -12 7 -42 12
-68 12 -25 0 -59 7 -74 14 -28 15 -28 16 -23 88 2 40 -1 91 -7 113 -7 26 -7
43 -1 49 23 23 10 36 -34 36 -37 0 -45 -4 -50 -22 -4 -16 0 -28 16 -41 21 -18
21 -18 3 -50 -39 -65 -59 -72 -110 -34 -20 15 -20 16 3 40 14 15 26 43 29 69
4 28 19 60 45 94 21 28 38 56 38 62 0 7 4 12 9 12 5 0 7 17 4 38 -3 22 2 55
12 82 10 25 21 70 26 100 18 117 22 132 35 137 8 3 15 19 15 37 1 17 5 45 9
61 l7 30 10 -25 c6 -14 8 -45 3 -72 -8 -56 2 -78 36 -78 22 0 25 -4 22 -27 -2
-20 -10 -29 -28 -33 -33 -8 -43 -60 -11 -60 12 0 26 -9 33 -20 7 -11 19 -20
26 -20 19 0 13 333 -5 352 -7 6 -13 19 -13 28 0 18 -31 51 -46 49 -5 0 -3 -3
4 -6z m47 -153 c7 -21 -9 -50 -26 -50 -12 0 -23 46 -14 59 10 18 33 12 40 -9z
m-235 -205 c11 -13 9 -22 -6 -51 l-19 -36 23 -15 c31 -21 29 -59 -5 -75 -17
-8 -31 -27 -39 -53 l-14 -40 6 50 c4 28 7 75 8 105 3 66 15 130 26 130 4 0 13
-7 20 -15z m-190 -971 c0 -58 -4 -113 -10 -123 -5 -10 -14 -49 -19 -87 -11
-76 -20 -127 -27 -161 -4 -21 -10 -23 -65 -23 l-61 0 7 53 c4 28 11 59 16 68
5 9 14 50 20 90 7 50 23 98 50 149 21 41 46 92 54 113 23 61 35 35 35 -79z"/>
<path d="M3240 3501 c0 -32 14 -49 25 -31 9 15 -3 60 -15 60 -6 0 -10 -13 -10
-29z"/>
<path d="M3056 3488 c-11 -41 -7 -346 5 -353 6 -4 13 3 16 15 4 13 16 23 34
27 46 9 37 67 -11 68 -25 0 -25 45 -1 52 28 7 29 58 1 75 -11 7 -20 20 -20 28
0 8 9 21 20 28 29 18 26 60 -6 72 -33 13 -31 14 -38 -12z"/>
<path d="M3134 3497 c-2 -7 4 -33 15 -58 12 -24 21 -54 21 -65 0 -12 7 -38 15
-58 9 -21 15 -54 14 -74 -2 -20 3 -47 9 -58 6 -12 15 -48 18 -80 4 -33 10 -63
14 -69 4 -5 11 -32 15 -60 4 -27 14 -62 22 -76 9 -15 13 -34 10 -43 -6 -15 -9
-15 -42 1 -43 21 -50 15 -29 -25 13 -26 13 -35 2 -54 -7 -13 -16 -68 -20 -123
-14 -189 -18 -205 -59 -205 -16 0 -46 -7 -66 -15 -19 -8 -48 -15 -62 -15 -15
0 -36 -7 -47 -15 -10 -8 -29 -15 -41 -15 -22 0 -67 -17 -126 -46 -16 -8 -37
-14 -47 -14 -9 0 -23 -7 -30 -15 -7 -8 -20 -15 -30 -15 -10 0 -23 -7 -30 -15
-7 -8 -17 -15 -22 -15 -10 0 -79 -52 -108 -80 -8 -9 -23 -31 -34 -51 -17 -32
-17 -44 -6 -179 6 -80 15 -199 20 -265 5 -66 14 -136 20 -155 5 -19 10 -58 10
-86 0 -28 7 -73 15 -100 8 -27 15 -70 15 -95 0 -26 7 -66 15 -89 8 -23 15 -60
15 -82 0 -21 7 -55 15 -75 8 -19 15 -51 15 -69 0 -18 7 -51 15 -72 9 -21 17
-58 18 -82 2 -41 0 -44 -28 -50 -16 -4 -39 -11 -50 -17 -11 -6 -94 -48 -185
-93 -91 -45 -192 -97 -225 -115 -33 -18 -82 -45 -110 -59 -27 -15 -63 -35 -80
-46 -16 -11 -39 -24 -50 -30 -11 -6 -33 -19 -50 -30 -16 -11 -41 -25 -55 -31
-14 -5 -38 -21 -55 -33 -16 -12 -37 -26 -45 -29 -8 -4 -28 -16 -45 -27 -16
-11 -37 -23 -45 -27 -8 -4 -43 -26 -78 -50 -35 -24 -66 -43 -69 -43 -3 0 -22
-12 -42 -27 -43 -33 -67 -49 -101 -66 -22 -10 -10 -12 90 -15 101 -2 116 -1
130 16 15 18 47 41 104 75 17 11 40 27 52 38 11 10 25 19 31 19 7 0 27 9 45
21 18 11 60 38 93 58 33 21 95 57 139 80 43 23 90 50 103 61 14 11 33 20 41
20 9 0 23 6 31 14 9 8 65 39 124 69 60 31 114 60 120 65 7 5 29 16 51 23 21 8
49 27 62 42 23 28 25 28 56 13 39 -20 48 -20 48 -1 0 8 14 22 31 31 27 13 30
20 26 47 -3 22 2 41 15 60 24 34 21 105 -11 252 -12 55 -28 141 -36 190 -8 50
-19 115 -25 145 -5 30 -12 84 -16 120 -3 36 -12 99 -20 140 -8 41 -14 104 -14
140 -1 36 -5 85 -9 109 -5 26 -5 72 0 109 5 37 5 70 0 80 -33 60 110 170 294
226 33 10 74 24 92 32 47 19 133 29 133 15 0 -6 6 -11 13 -11 7 0 18 21 24 48
34 143 54 185 77 162 7 -7 6 -26 -2 -55 -7 -25 -12 -56 -12 -70 0 -13 -4 -27
-10 -30 -5 -3 -10 -17 -10 -31 0 -14 -7 -27 -15 -30 -22 -9 -18 -24 5 -24 26
0 40 -34 50 -123 9 -77 29 -114 31 -57 0 19 2 103 3 185 3 156 18 320 30 333
4 4 15 -3 24 -16 10 -12 31 -26 47 -31 22 -6 29 -13 27 -27 -5 -22 36 -152 54
-174 7 -8 24 -40 38 -70 15 -30 42 -80 61 -110 28 -43 35 -64 35 -103 0 -61
18 -186 31 -209 5 -10 9 -29 9 -43 0 -16 6 -25 15 -25 18 0 20 31 3 48 -8 8
-8 15 1 26 13 15 11 80 -5 207 -4 38 -3 59 5 63 18 11 13 28 -25 86 -19 30
-40 64 -45 75 -5 11 -13 27 -18 35 -4 8 -15 32 -24 53 -27 61 -46 105 -60 140
-39 90 -56 159 -57 223 0 22 -3 44 -7 48 -11 10 -31 215 -43 436 -10 177 -24
250 -49 250 -18 0 -61 -69 -61 -99 0 -38 17 -49 29 -19 9 20 10 19 10 -14 1
-20 6 -49 12 -65 6 -15 15 -82 20 -148 5 -66 12 -139 15 -162 6 -45 -4 -55
-26 -28 -7 8 -9 22 -6 31 10 26 -4 88 -17 75 -6 -6 -19 -11 -29 -11 -29 0 -24
54 7 74 23 15 25 22 19 54 -3 20 -15 51 -25 68 -11 17 -19 40 -19 51 0 12 -7
26 -15 33 -8 7 -15 20 -15 30 0 35 -62 150 -81 150 -6 0 -12 -6 -15 -13z m225
-669 c7 -29 15 -72 18 -95 l5 -43 -35 0 c-28 0 -40 7 -61 34 -27 36 -34 70
-15 81 6 4 16 -1 24 -11 16 -22 19 -16 30 49 3 20 9 37 13 37 5 0 14 -24 21
-52z"/>
<path d="M3556 3323 c-18 -19 -3 -42 97 -144 l68 -70 92 1 c51 0 148 0 217 0
69 0 128 0 133 0 42 1 -78 114 -160 149 -11 6 -24 15 -28 20 -3 6 -22 11 -41
11 -19 0 -47 6 -62 14 -28 14 -304 31 -316 19z m157 -60 c3 -5 35 -8 72 -8 64
1 66 0 60 -22 -5 -21 -2 -23 30 -23 24 0 35 5 35 15 0 19 10 19 37 0 12 -8 29
-12 38 -9 13 5 15 1 12 -17 -2 -13 -2 -18 0 -11 6 18 30 15 45 -6 7 -11 20
-22 28 -25 8 -4 -12 -6 -45 -5 -33 1 -68 -2 -78 -7 -11 -4 -23 -3 -30 4 -13
13 -83 15 -91 2 -7 -10 -56 -2 -56 10 0 5 -7 9 -15 9 -8 0 -15 -4 -15 -10 0
-5 -5 -10 -10 -10 -7 0 -8 14 -4 38 6 35 5 36 -10 17 -16 -20 -16 -20 -39 8
-12 15 -28 27 -35 27 -7 0 -12 5 -12 11 0 6 9 9 20 6 11 -3 23 -1 26 4 6 11
31 12 37 2z"/>
<path d="M5120 3308 c-19 -5 -59 -13 -88 -17 -28 -4 -57 -12 -64 -19 -7 -7
-20 -12 -30 -12 -10 0 -21 -7 -24 -15 -4 -8 -12 -15 -19 -15 -19 0 -118 -96
-111 -108 7 -12 126 -14 126 -2 0 5 -10 15 -22 21 l-22 12 30 23 c16 13 34 22
41 20 17 -7 63 17 63 32 0 18 27 14 35 -5 6 -17 7 -17 19 -1 8 11 20 15 36 11
16 -4 27 0 37 13 9 13 16 15 21 8 4 -6 17 -14 29 -18 16 -5 23 -2 28 14 8 25
24 26 41 3 12 -17 13 -17 19 0 9 23 32 22 45 -2 15 -29 12 -51 -7 -58 -10 -3
-25 -15 -34 -26 -17 -21 -39 -16 -39 9 0 8 -4 14 -10 14 -5 0 -10 -9 -10 -20
0 -15 -7 -20 -24 -20 -14 0 -27 4 -30 9 -15 24 -126 14 -126 -11 0 -12 -28 -9
-32 3 -3 8 -10 8 -27 -2 -20 -12 -24 -12 -37 5 -17 24 -19 7 -2 -29 14 -31 38
-33 46 -3 l5 22 8 -22 c10 -26 47 -30 56 -6 3 9 15 19 27 23 22 9 66 -6 66
-21 0 -4 33 -8 73 -8 55 1 77 5 95 19 12 11 22 22 22 25 0 3 8 14 18 24 9 10
24 29 32 42 8 12 21 28 28 36 6 7 12 24 12 38 l0 26 -132 -1 c-73 -1 -149 -5
-168 -11z"/>
<path d="M4820 3250 c0 -5 -9 -10 -20 -10 -13 0 -20 -7 -20 -20 0 -13 7 -20
20 -20 11 0 20 7 20 15 0 9 7 18 15 21 8 4 15 10 15 15 0 5 -7 9 -15 9 -8 0
-15 -4 -15 -10z"/>
<path d="M4306 3228 c4 -13 12 -27 19 -33 7 -5 15 -29 18 -52 3 -23 15 -55 27
-70 23 -28 23 -28 15 -3 -4 14 -9 46 -10 71 -1 30 -10 56 -25 77 -28 38 -55
44 -44 10z"/>
<path d="M5787 3123 c-13 -21 3 -82 23 -88 56 -18 44 -72 -18 -77 -30 -2 -38
-7 -40 -27 -2 -15 3 -28 12 -33 9 -5 16 -18 16 -28 0 -28 19 -25 30 4 5 13 14
27 19 31 6 3 11 14 11 25 0 10 7 21 16 24 11 4 14 13 10 29 -4 16 1 26 15 35
29 18 24 79 -6 73 -51 -11 -69 -6 -75 19 -4 16 -8 21 -13 13z"/>
<path d="M3080 3081 c0 -16 7 -34 15 -41 8 -7 15 -20 15 -30 0 -10 7 -23 15
-30 8 -7 15 -21 15 -32 0 -10 7 -21 15 -24 8 -4 15 -12 15 -19 0 -29 20 -24
35 9 22 45 7 79 -33 74 -37 -4 -40 24 -8 63 14 17 26 38 26 47 0 13 -2 13 -14
-3 -12 -17 -14 -17 -37 -2 -37 26 -59 22 -59 -12z"/>
<path d="M4267 3002 c-10 -10 -17 -30 -17 -44 0 -38 29 -58 83 -58 l47 0 0 60
0 60 -48 0 c-35 0 -54 -5 -65 -18z"/>
<path d="M4587 3013 c-3 -4 -4 -30 -3 -58 l1 -50 58 0 c53 0 60 3 75 28 15 25
15 30 2 55 -14 24 -23 27 -72 30 -31 2 -58 -1 -61 -5z"/>
<path d="M4268 2809 c-12 -7 -18 -22 -18 -47 1 -48 34 -75 88 -70 l37 3 0 60
0 60 -45 2 c-25 2 -53 -2 -62 -8z"/>
<path d="M4594 2806 c-3 -7 -4 -35 -2 -62 l3 -49 42 -3 c61 -4 93 19 93 69 0
46 -18 59 -85 59 -29 0 -47 -5 -51 -14z"/>
<path d="M4257 2593 c-4 -3 -7 -28 -7 -54 0 -43 3 -49 23 -55 13 -3 41 -4 63
-2 l39 3 3 58 3 57 -59 0 c-32 0 -62 -3 -65 -7z"/>
<path d="M4587 2594 c-12 -12 -8 -79 6 -98 10 -13 24 -17 61 -14 39 2 50 8 64
31 16 25 16 29 0 55 -14 23 -24 27 -70 30 -30 2 -57 0 -61 -4z"/>
<path d="M5663 2445 c-3 -9 -2 -33 1 -53 5 -28 8 -215 4 -251 -3 -33 4 -131
10 -131 4 0 14 34 21 75 13 77 27 100 43 71 11 -20 38 -21 38 -1 0 8 -8 15
-19 15 -19 0 -23 15 -38 164 -3 33 -14 74 -25 93 -23 37 -26 39 -35 18z"/>
<path d="M4361 2364 c-31 -22 -26 -41 28 -94 49 -49 89 -68 113 -56 92 49 138
87 138 116 0 38 -76 47 -125 14 -25 -18 -49 -18 -64 0 -22 26 -67 36 -90 20z"/>
<path d="M3680 2136 c0 -8 4 -17 9 -20 5 -3 19 -25 31 -48 12 -24 33 -53 46
-65 13 -12 24 -24 24 -27 0 -7 99 -106 106 -106 3 0 15 -11 27 -24 27 -29 135
-87 142 -77 2 5 -15 23 -38 42 -70 57 -186 170 -260 254 -76 86 -87 95 -87 71z"/>
<path d="M4697 2124 c-3 -3 -107 -6 -231 -5 -143 1 -226 -3 -226 -9 0 -5 -11
-12 -25 -16 -14 -3 -25 -12 -25 -20 0 -19 38 -18 56 1 16 15 62 18 329 17 143
-1 142 -1 159 -17 18 -18 56 -20 56 -2 0 6 -18 22 -40 35 -43 24 -44 25 -53
16z"/>
<path d="M5235 2097 c-12 -12 -36 -42 -55 -67 -19 -25 -41 -52 -49 -61 -26
-26 -65 -72 -88 -103 -51 -66 -12 -53 66 23 28 27 51 52 51 55 0 3 14 20 30
38 17 18 30 37 30 42 0 5 11 24 25 42 39 51 30 76 -10 31z"/>
<path d="M4365 2001 l-90 -6 3 -35 c1 -19 10 -52 19 -72 14 -31 22 -38 45 -38
29 0 37 17 17 37 -6 6 -9 25 -7 43 l3 32 121 0 c67 1 127 -2 133 -7 9 -5 11
-22 6 -56 -4 -26 -4 -53 0 -58 10 -18 53 18 60 50 4 16 11 31 16 34 5 4 9 22
9 41 l0 34 -48 0 c-27 0 -82 2 -123 4 -41 2 -114 1 -164 -3z"/>
<path d="M4005 928 c3 -13 9 -58 12 -100 3 -43 9 -78 12 -78 11 0 13 145 2
173 -13 33 -36 37 -26 5z"/>
<path d="M4076 691 c-5 -7 -17 -11 -27 -8 -10 3 -23 -1 -29 -9 -17 -19 -8 -49
14 -49 22 0 60 47 54 66 -4 11 -6 11 -12 0z"/>
<path d="M2721 536 c13 -14 26 -23 28 -20 6 6 -30 44 -42 44 -5 0 1 -11 14
-24z"/>
<path d="M3790 535 c-7 -8 -21 -15 -32 -15 -11 0 -18 -5 -15 -12 2 -7 15 -13
28 -13 20 0 25 -6 30 -35 7 -41 15 -26 23 43 6 50 -8 63 -34 32z"/>
</g>
</svg>
